<?xml version="1.0" encoding="utf-8"?>
<!-- Svg Vector Icons : http://www.onlinewebfonts.com/icon -->
<!DOCTYPE svg PUBLIC "-//W3C//DTD SVG 1.1//EN" "http://www.w3.org/Graphics/SVG/1.1/DTD/svg11.dtd">
<svg version="1.1" xmlns="http://www.w3.org/2000/svg" xmlns:xlink="http://www.w3.org/1999/xlink" x="0px" y="0px" viewBox="0 0 256 256" enable-background="new 0 0 256 256" xml:space="preserve">
<metadata> Svg Vector Icons : http://www.onlinewebfonts.com/icon </metadata>
<g><g><g><path fill="#000000" d="M128,10C62.8,10,10,62.8,10,128c0,65.2,52.8,118,118,118c65.2,0,118-52.8,118-118C246,62.8,193.2,10,128,10z M195.3,147h-50.2v50.2c0,8.6-7,15.6-15.6,15.6c-8.6,0-15.6-7-15.6-15.6V147H63.8c-8.6,0-15.6-7-15.6-15.6c0-8.6,7-15.6,15.6-15.6H114V65.6c0-8.6,7-15.6,15.6-15.6s15.6,7,15.6,15.6v50.2h50.2c8.6,0,15.6,7,15.6,15.6C210.9,140,203.9,147,195.3,147z"/></g><g></g><g></g><g></g><g></g><g></g><g></g><g></g><g></g><g></g><g></g><g></g><g></g><g></g><g></g><g></g></g></g>
</svg>